<svg width="32" height="32" viewBox="0 0 32 32" fill="none" xmlns="http://www.w3.org/2000/svg">
<path fill-rule="evenodd" clip-rule="evenodd" d="M12.042 1.7474C6.35806 1.7474 1.75033 6.35513 1.75033 12.0391C1.75033 17.723 6.35806 22.3307 12.042 22.3307C17.7259 22.3307 22.3337 17.723 22.3337 12.0391C22.3337 6.35513 17.7259 1.7474 12.042 1.7474ZM0.166992 12.0391C0.166992 5.48068 5.48361 0.164062 12.042 0.164062C18.6004 0.164062 23.917 5.48068 23.917 12.0391C23.917 15.034 22.8083 17.77 20.9789 19.8589L31.5991 30.4791C31.9082 30.7882 31.9082 31.2895 31.5991 31.5987C31.2899 31.9078 30.7887 31.9078 30.4795 31.5987L19.8592 20.9784C17.7705 22.8063 15.0356 23.9141 12.042 23.9141C5.48361 23.9141 0.166992 18.5974 0.166992 12.0391Z" fill="#555555"/>
</svg>
