<?xml version="1.0" encoding="UTF-8" standalone="no"?>
<!-- Created with Inkscape (http://www.inkscape.org/) -->

<svg
   xmlns:dc="http://purl.org/dc/elements/1.1/"
   xmlns:cc="http://creativecommons.org/ns#"
   xmlns:rdf="http://www.w3.org/1999/02/22-rdf-syntax-ns#"
   xmlns:svg="http://www.w3.org/2000/svg"
   xmlns="http://www.w3.org/2000/svg"
   xmlns:sodipodi="http://sodipodi.sourceforge.net/DTD/sodipodi-0.dtd"
   xmlns:inkscape="http://www.inkscape.org/namespaces/inkscape"
   width="56"
   height="56"
   viewBox="0 0 14.816666 14.816667"
   version="1.1"
   id="svg8"
   inkscape:version="0.92.5 (2060ec1f9f, 2020-04-08)"
   sodipodi:docname="user.svg">
  <defs
     id="defs2" />
  <sodipodi:namedview
     id="base"
     pagecolor="#ffffff"
     bordercolor="#666666"
     borderopacity="1.0"
     inkscape:pageopacity="0.0"
     inkscape:pageshadow="2"
     inkscape:zoom="5.6"
     inkscape:cx="47.637407"
     inkscape:cy="12.933597"
     inkscape:document-units="mm"
     inkscape:current-layer="g821"
     showgrid="false"
     units="px"
     inkscape:window-width="1600"
     inkscape:window-height="842"
     inkscape:window-x="1440"
     inkscape:window-y="0"
     inkscape:window-maximized="1" />
  <metadata
     id="metadata5">
    <rdf:RDF>
      <cc:Work
         rdf:about="">
        <dc:format>image/svg+xml</dc:format>
        <dc:type
           rdf:resource="http://purl.org/dc/dcmitype/StillImage" />
        <dc:title></dc:title>
      </cc:Work>
    </rdf:RDF>
  </metadata>
  <g
     inkscape:label="Camada 1"
     inkscape:groupmode="layer"
     id="layer1"
     transform="translate(0,-282.18332)">
    <g
       style="fill:none"
       id="g821"
       transform="matrix(0.26458333,0,0,0.26458333,2.1157798,284.38776)">
      <path
         style="opacity:1;fill:none;stroke:#8a8a8a;stroke-width:1.5450573;stroke-miterlimit:4;stroke-dasharray:none;stroke-opacity:1"
         inkscape:connector-curvature="0"
         id="path2"
         d="m 39.261578,40.862425 c -11.427669,10.761446 -27.656562,10.761446 -39.08432771,0 C 2.8374743,38.357324 7.8857359,35.580328 14.642561,33.035256 v -5.090343 c 0,0 -2.702764,-0.893323 -2.702764,-6.362779 -2.7026582,0 -2.7026582,-5.090243 0,-5.090243 0,-0.733044 -4.5270316,-7.4597836 1.164891,-6.362835 1.351329,-5.0902586 14.673087,-5.0902586 16.024416,0 0.805386,3.031253 -1.210837,5.825742 -1.210837,6.362835 2.618936,0 1.902685,5.090243 0.02165,5.090243 0,5.469456 -2.486509,6.362779 -2.486509,6.362779 v 5.090343 c 6.756751,2.545072 10.360189,4.668962 13.808173,7.827169 z" />
    </g>
  </g>
</svg>
